<svg width="184" height="34" viewBox="0 0 184 34" fill="none" xmlns="http://www.w3.org/2000/svg">
<g clip-path="url(#clip0_16_17)">
<path d="M44.0018 0.546147L50.582 0.535463C51.7251 0.531172 53.105 0.383138 54.2234 0.60886C54.9022 0.745866 65.9302 7.33527 67.2564 8.19561C69.7277 6.54639 72.6345 5.03573 75.2218 3.49228C76.6664 2.6305 78.8224 1.14446 80.366 0.593688C80.6404 0.495769 83.1551 0.534981 83.6507 0.535324L90.8239 0.53967C88.5853 1.97504 85.6172 3.63258 83.2964 4.98115L72.5614 11.2586C78.3797 14.8202 84.8035 18.3384 90.7251 21.8083L90.7206 21.846C90.5805 21.9322 80.5052 21.9616 80.236 21.817C75.9092 19.494 71.4927 16.8691 67.2618 14.3254C65.7064 15.2531 64.1217 16.1286 62.564 17.0513C61.1369 17.8967 55.2352 21.6321 54.136 21.8509C53.1507 22.0471 51.8923 21.9095 50.8841 21.9086L43.8168 21.8997C45.6452 20.7656 47.5862 19.7182 49.443 18.6296L61.9943 11.2477L44.0018 0.546147Z" fill="#8B2828"/>
<path d="M112.413 5.67919C112.563 5.66728 112.727 5.65408 112.878 5.6542C118.875 5.65932 124.873 5.63119 130.87 5.66671C131.144 5.66833 131.423 5.69544 131.692 5.72432C132.627 5.82496 133.079 6.29536 133.175 7.18641C133.317 8.50214 133.269 9.79855 133.267 11.1076C133.256 13.2396 133.26 15.3717 133.277 17.5036L130.646 17.4991L130.623 16.1702C130.615 15.8337 130.629 15.4261 130.633 15.0846L112.971 15.0654L112.986 17.5051L110.471 17.5C110.382 14.2275 110.455 10.7385 110.501 7.45472C110.52 6.12299 111.222 5.83129 112.413 5.67919ZM129.831 12.9194C130.205 12.9194 130.298 12.9838 130.569 12.7897C130.743 12.3751 130.66 9.37028 130.466 8.89361C130.367 8.65204 130.151 8.36887 129.904 8.26387C129.016 7.88571 115.578 7.93213 113.857 8.10355C113.564 8.20794 113.299 8.30506 113.186 8.61176C112.806 9.64488 112.965 11.7639 112.982 12.9173L129.831 12.9194Z" fill="#DEDFDE"/>
<path d="M135.229 5.64647C142.134 5.8243 149.27 5.4823 156.184 5.74881C158.592 5.84165 158.076 10.2009 158.06 11.8634C157.391 12.7569 157.2 13.076 156.106 13.3429C157.923 14.5406 157.981 15.4409 157.992 17.4953L156.807 17.4811L154.957 17.4895C154.933 16.0073 154.478 14.5246 152.754 14.3596C151.053 14.1969 149.315 14.2637 147.604 14.265L137.784 14.2791L137.788 17.5035L135.255 17.4904C135.123 13.8097 135.252 9.38948 135.229 5.64647ZM137.779 11.8997L148.737 11.9005C150.567 11.9013 152.547 11.9504 154.373 11.8266C154.65 11.8079 154.897 11.6595 155.128 11.5123C155.48 10.8547 155.542 9.62524 155.325 8.91441C155.25 8.66663 155.092 8.37165 154.852 8.24779C153.614 7.61159 140.44 8.21239 137.777 8.02438L137.779 11.8997Z" fill="#DEDFDE"/>
<path d="M162.114 5.68596C162.605 5.59876 167.283 5.65688 168.109 5.65772L182.868 5.64054L182.871 8.03994C176.84 7.92495 170.752 8.1149 164.715 8.01249C164.119 8.00237 163.12 7.8784 162.739 8.45547C162.44 8.90768 162.421 10.0888 163.13 10.2065C164.366 10.4203 165.735 10.3307 167 10.3289L175.988 10.318C177.554 10.3164 181.215 10.1351 182.492 10.7272C183.085 11.3493 182.844 14.263 182.858 15.2159C182.88 16.784 182.721 17.2723 181.162 17.4818C178.785 17.5411 176.217 17.4948 173.827 17.4956L160.014 17.4986C159.982 16.6923 159.981 15.885 160.013 15.0786L172.985 15.0886L176.987 15.0897C177.946 15.0934 181.037 15.4994 180.048 13.5103C179.96 13.3334 179.546 12.9902 179.352 12.9726C178.3 12.877 177.183 12.9272 176.117 12.9287L166.867 12.938C165.259 12.939 163.678 12.9411 162.051 12.9023C159.509 12.978 160.005 10.3392 159.996 8.54867C159.984 6.54374 160.031 5.91086 162.114 5.68596Z" fill="#DEDFDE"/>
<path d="M87.7656 5.68246C88.2755 5.58257 92.8439 5.65565 93.5956 5.65211C98.5455 5.62886 103.516 5.69375 108.467 5.63214C108.423 6.3464 108.452 7.30812 108.457 8.04513C102.353 7.88086 96.0378 8.12908 89.9203 8.02869C89.5155 8.02205 88.9256 8.11261 88.5582 8.29105C88.1837 8.71102 88.1297 9.66847 88.1577 10.2146C88.4065 15.0653 87.0356 15.1495 92.1972 15.0912L108.432 15.0728V17.4946C102.303 17.3521 96.0872 17.584 89.9518 17.4857C88.8743 17.4685 87.1843 17.6072 86.2396 17.0615C85.7808 16.5223 85.6555 15.5521 85.6694 14.8627C85.7305 12.6138 85.6462 10.3661 85.6473 8.11784C85.6481 6.40787 86.144 5.87861 87.7656 5.68246Z" fill="#DEDFDE"/>
<path d="M45.0487 5.60582C45.5574 5.69179 47.0476 5.6413 47.6117 5.63216L47.6347 12.1262C47.6396 13.2971 47.6774 14.4356 47.5918 15.6046C47.4626 17.3702 46.581 17.4721 45.0397 17.4836L33.3627 17.488C32.4299 17.4878 25.8228 17.6809 25.3112 17.0756C24.6038 16.2388 24.8415 12.0295 24.8473 10.6306L24.8547 5.6382C25.6804 5.64989 26.5063 5.64784 27.3319 5.63205C27.3066 7.17266 27.0041 13.8281 27.7779 14.768C28.0579 14.9305 28.7177 15.0602 29.0429 15.0638C33.9301 15.1184 38.8299 15.1198 43.7168 15.054C45.391 15.0315 44.9773 12.598 45.0235 11.4692C45.1015 9.55893 44.898 7.50516 45.0487 5.60582Z" fill="#DEDFDE"/>
<path d="M169.44 34C169.046 33.7864 168.88 33.649 168.753 33.2155C168.525 32.4365 168.482 27.1327 168.856 26.4538C168.938 26.3071 169.119 26.2638 169.276 26.2189C170.452 25.8824 180.631 25.9194 182.315 26.0326C182.63 26.0538 182.938 26.0708 183.22 26.2264C183.488 26.375 183.704 26.6325 183.784 26.9316C183.99 27.7044 183.988 32.8472 183.616 33.4588C183.417 33.7845 183.017 33.89 182.676 34H169.44ZM181.868 32.3021C182.369 31.8899 182.154 28.5024 182.164 27.6901C181.121 27.4786 177.936 27.5228 176.655 27.5419C174.783 27.5698 172.47 27.4762 170.638 27.5526C170.368 27.8547 170.251 28.3299 170.301 28.719C170.396 29.454 170.119 31.5627 170.481 32.1425C170.989 32.3877 180.625 32.3243 181.868 32.3021Z" fill="#A8A7A7"/>
<path d="M107.888 34C107.87 32.4982 107.603 27.2267 108.263 26.3132C108.473 26.1584 109.17 26.0086 109.405 26.0274C111.696 26.2102 121.358 25.5315 122.872 26.3612C123.321 27.0349 123.145 32.8018 123.141 34H121.425C121.411 33.4547 121.423 32.8536 121.422 32.3032L109.545 32.2583C109.565 32.8166 109.556 33.4364 109.559 34H107.888ZM109.565 30.8512L120.826 30.8508L121.256 30.8326C121.629 30.3774 121.439 28.2066 121.016 27.7577C120.302 27.3937 111.788 27.4724 110.419 27.5566C110.206 27.6089 109.879 27.6701 109.773 27.8674C109.356 28.6371 109.576 29.9579 109.565 30.8512Z" fill="#A8A7A7"/>
<path d="M0 5.7132C0.881822 5.66008 1.72466 5.69178 2.59119 5.65897C2.55942 7.80689 2.55134 9.95508 2.56694 12.1032C2.56782 12.7 2.61423 14.5551 2.55235 15.0753C9.19942 15.0762 16.2027 15.1924 22.8192 15.0652C22.8216 15.8715 22.8113 16.7115 22.8272 17.5144C20.3833 17.51 0.354573 17.6028 0 17.4326V5.7132Z" fill="#DEDFDE"/>
<path d="M139.515 34C139.118 33.9026 138.732 33.8327 138.501 33.4569C138.079 32.7721 138.142 27.7413 138.363 26.8535C138.416 26.6381 138.493 26.4279 138.691 26.3122C139.031 26.1122 139.535 26.0508 139.925 26.0197C141.161 25.9211 142.445 25.993 143.688 25.9937C146.95 25.9955 150.251 26.1031 153.508 25.9622L153.513 27.5429L144.967 27.5326C143.858 27.5315 142.735 27.5263 141.639 27.5318C140.815 27.5359 139.827 27.4111 139.927 28.5593C140.012 29.5431 139.706 31.2201 140.159 32.0779C140.309 32.2229 140.763 32.2856 140.944 32.2768C142.043 32.2229 151.365 32.4615 151.745 32.2265C151.776 32.0537 151.811 31.9556 151.723 31.8007C150.775 31.6594 147.816 31.7404 146.701 31.7468L146.704 30.1723C148.452 30.2439 151.775 30.2737 153.513 30.1741C153.518 31.0977 153.724 33.0121 153.119 33.6561C152.911 33.8772 152.57 33.9394 152.279 34H139.515Z" fill="#A8A7A7"/>
<path d="M78.7184 34C78.3514 33.8991 77.9485 33.8236 77.7471 33.4638C77.3842 32.8152 77.3938 27.5129 77.6205 26.7815C77.6724 26.6139 77.7892 26.3687 77.9509 26.2853C79.3953 25.5406 90.0856 26.2819 92.7747 25.9429L92.7756 27.5483L84.478 27.5291C83.7542 27.5283 79.9229 27.387 79.5024 27.7766C78.9574 28.583 79.0867 31.3857 79.5442 32.2673C81.1107 32.3443 82.9238 32.3039 84.5181 32.3035L92.7756 32.2935L92.7523 34H78.7184Z" fill="#A8A7A7"/>
<path d="M1.8337 34C1.46 33.9 1.06409 33.8259 0.856871 33.4619C0.437515 32.7253 0.503964 27.7069 0.765891 26.8132C0.830515 26.5928 0.936825 26.3399 1.14714 26.2267C2.24048 25.6385 13.4798 26.1889 15.8904 25.9479L15.8907 27.5472L7.82084 27.5302C6.41798 27.5292 4.98719 27.4644 3.58913 27.5475C3.33876 27.5624 2.67408 27.5871 2.49904 27.771C2.1608 28.1263 2.26224 30.6152 2.29289 31.1612C2.30896 31.4474 2.35591 31.9048 2.58043 32.1031C3.0089 32.4815 14.5106 32.2987 15.8842 32.2932L15.8582 34H1.8337Z" fill="#A8A7A7"/>
<path d="M44.5208 25.9648C45.1307 25.9822 45.6583 26.006 46.2701 25.9433L46.2541 34H44.5429C44.4939 33.0729 44.5309 31.8169 44.5305 30.8652L32.6642 30.8642C32.6799 31.9094 32.6789 32.9548 32.6613 34H31.0013L30.981 25.9685C31.5058 25.9764 32.1609 26.0031 32.6739 25.9695L32.678 29.1547L44.5298 29.1574L44.5208 25.9648Z" fill="#A8A7A7"/>
<path d="M61.3765 26.0263L63.0622 26.0244L63.0536 34H61.4092C61.3105 31.3729 61.4396 28.6546 61.3765 26.0263Z" fill="#A8A7A7"/>
</g>
<defs>
<clipPath id="clip0_16_17">
<rect width="183.945" height="34" fill="white"/>
</clipPath>
</defs>
</svg>
