<svg xmlns="http://www.w3.org/2000/svg" viewBox="0 0 1000 625" fill="none">
  <defs><linearGradient id="g" x1="0" y1="0" x2="1" y2="1">
    <stop offset="0" stop-color="#1D1E22"/><stop offset="1" stop-color="#141519"/>
  </linearGradient></defs>
  <rect width="1000" height="625" fill="url(#g)"/>
  <path d="M120 300c30-60 70-92 140-98 40-40 92-58 168-58 78 0 128 26 176 84 60 6 96 20 128 44 30 22 44 48 44 82v40c0 14-10 24-24 24h-40" stroke="#3a3b40" stroke-width="3" fill="none" stroke-linecap="round"/><path d="M760 522H240" stroke="#3a3b40" stroke-width="3"/><circle cx="330" cy="522" r="60" stroke="#4a4b52" stroke-width="3" fill="none"/><circle cx="670" cy="522" r="60" stroke="#4a4b52" stroke-width="3" fill="none"/><path d="M300 246c8-30 40-46 108-50 34-30 150-30 190 6" stroke="#2e2f34" stroke-width="3" fill="none"/>
  <text x="500" y="600" text-anchor="middle" font-family="Inter, sans-serif" font-size="20" letter-spacing="6" fill="#4a4b52">RANGE ROVER HSE</text>
</svg>
