<svg xmlns="http://www.w3.org/2000/svg" viewBox="0 0 24 24" fill="none" stroke="currentColor" stroke-width="1.5" stroke-linecap="round" stroke-linejoin="round">
<path d="M20 12.2c0-.6-.05-1.2-.15-1.7H12v3.4h4.5a3.9 3.9 0 0 1-1.7 2.5v2.1h2.7A8 8 0 0 0 20 12.2z"/><path d="M12 20.5a8 8 0 0 0 5.5-2l-2.7-2.1a4.9 4.9 0 0 1-7.3-2.6H4.7v2.2A8.5 8.5 0 0 0 12 20.5z"/><path d="M7.5 13.8a5 5 0 0 1 0-3.2V8.4H4.7a8.5 8.5 0 0 0 0 7.6z"/><path d="M12 7.3a4.6 4.6 0 0 1 3.2 1.3l2.4-2.4A8.2 8.2 0 0 0 12 3.5 8.5 8.5 0 0 0 4.7 8.4l2.8 2.2A5 5 0 0 1 12 7.3z"/>
</svg>
